<mxfile modified="2021-02-23T06:14:28.860Z" host="app.diagrams.net" agent="5.0 (X11; Linux x86_64) AppleWebKit/537.36 (KHTML, like Gecko) Chrome/88.0.4324.182 Safari/537.36" etag="jl8Y6ccWmZ_g4pyXak7G" version="14.4.2" type="github">
  <diagram id="Ht1M8jgEwFfnCIfOTk4-" name="Page-1">
    <mxGraphModel dx="1350" dy="-53" grid="1" gridSize="10" guides="1" tooltips="1" connect="1" arrows="1" fold="1" page="1" pageScale="1" pageWidth="1169" pageHeight="827" math="0" shadow="0">
      <root>
        <mxCell id="0" />
        <mxCell id="1" parent="0" />
        <mxCell id="UEzPUAAOIrF-is8g5C7q-74" value="AWS Cloud" style="points=[[0,0],[0.25,0],[0.5,0],[0.75,0],[1,0],[1,0.25],[1,0.5],[1,0.75],[1,1],[0.75,1],[0.5,1],[0.25,1],[0,1],[0,0.75],[0,0.5],[0,0.25]];outlineConnect=0;gradientColor=none;html=1;whiteSpace=wrap;fontSize=12;fontStyle=0;shape=mxgraph.aws4.group;grIcon=mxgraph.aws4.group_aws_cloud_alt;strokeColor=#232F3E;fillColor=none;verticalAlign=top;align=left;spacingLeft=30;fontColor=#232F3E;dashed=0;labelBackgroundColor=#ffffff;" parent="1" vertex="1">
          <mxGeometry x="180" y="870" width="750" height="590" as="geometry" />
        </mxCell>
        <mxCell id="tscdqK9duFFLks6r7VG2-21" value="Store to updated items table" style="edgeStyle=orthogonalEdgeStyle;rounded=0;orthogonalLoop=1;jettySize=auto;html=1;" edge="1" parent="1" source="tscdqK9duFFLks6r7VG2-1" target="tscdqK9duFFLks6r7VG2-3">
          <mxGeometry relative="1" as="geometry" />
        </mxCell>
        <mxCell id="tscdqK9duFFLks6r7VG2-1" value="Lambda perform item update logic" style="outlineConnect=0;fontColor=#232F3E;gradientColor=#F78E04;gradientDirection=north;fillColor=#D05C17;strokeColor=#ffffff;dashed=0;verticalLabelPosition=bottom;verticalAlign=top;align=center;html=1;fontSize=12;fontStyle=0;aspect=fixed;shape=mxgraph.aws4.resourceIcon;resIcon=mxgraph.aws4.lambda;labelBackgroundColor=#ffffff;spacingTop=6;" vertex="1" parent="1">
          <mxGeometry x="750" y="1168" width="80" height="80" as="geometry" />
        </mxCell>
        <mxCell id="tscdqK9duFFLks6r7VG2-12" style="edgeStyle=orthogonalEdgeStyle;rounded=0;orthogonalLoop=1;jettySize=auto;html=1;" edge="1" parent="1" source="tscdqK9duFFLks6r7VG2-3" target="tscdqK9duFFLks6r7VG2-7">
          <mxGeometry relative="1" as="geometry" />
        </mxCell>
        <mxCell id="tscdqK9duFFLks6r7VG2-13" value="Event dispatched on entry in new items tabe" style="edgeLabel;html=1;align=center;verticalAlign=middle;resizable=0;points=[];" vertex="1" connectable="0" parent="tscdqK9duFFLks6r7VG2-12">
          <mxGeometry x="-0.2727" y="-3" relative="1" as="geometry">
            <mxPoint as="offset" />
          </mxGeometry>
        </mxCell>
        <mxCell id="tscdqK9duFFLks6r7VG2-3" value="Amazon&lt;br&gt;DynamoDB" style="outlineConnect=0;fontColor=#232F3E;gradientColor=#4D72F3;gradientDirection=north;fillColor=#3334B9;strokeColor=#ffffff;dashed=0;verticalLabelPosition=bottom;verticalAlign=top;align=center;html=1;fontSize=12;fontStyle=0;aspect=fixed;shape=mxgraph.aws4.resourceIcon;resIcon=mxgraph.aws4.dynamodb;labelBackgroundColor=#ffffff;" vertex="1" parent="1">
          <mxGeometry x="270" y="1170" width="78" height="78" as="geometry" />
        </mxCell>
        <mxCell id="tscdqK9duFFLks6r7VG2-11" value="Manualy store to new items table" style="edgeStyle=orthogonalEdgeStyle;rounded=0;orthogonalLoop=1;jettySize=auto;html=1;" edge="1" parent="1" source="tscdqK9duFFLks6r7VG2-4" target="tscdqK9duFFLks6r7VG2-3">
          <mxGeometry x="-0.0196" y="-11" relative="1" as="geometry">
            <mxPoint as="offset" />
          </mxGeometry>
        </mxCell>
        <mxCell id="tscdqK9duFFLks6r7VG2-4" value="Object" style="outlineConnect=0;fontColor=#232F3E;gradientColor=none;fillColor=#277116;strokeColor=none;dashed=0;verticalLabelPosition=bottom;verticalAlign=top;align=center;html=1;fontSize=12;fontStyle=0;aspect=fixed;pointerEvents=1;shape=mxgraph.aws4.object;labelBackgroundColor=#ffffff;" vertex="1" parent="1">
          <mxGeometry x="270" y="1350" width="78" height="78" as="geometry" />
        </mxCell>
        <mxCell id="tscdqK9duFFLks6r7VG2-23" style="edgeStyle=orthogonalEdgeStyle;rounded=0;orthogonalLoop=1;jettySize=auto;html=1;" edge="1" parent="1" source="tscdqK9duFFLks6r7VG2-5" target="tscdqK9duFFLks6r7VG2-1">
          <mxGeometry relative="1" as="geometry" />
        </mxCell>
        <mxCell id="tscdqK9duFFLks6r7VG2-5" value="POST /UpdateItem" style="outlineConnect=0;dashed=0;verticalLabelPosition=bottom;verticalAlign=top;align=center;html=1;shape=mxgraph.aws3.api_gateway;fillColor=#D9A741;gradientColor=none;" vertex="1" parent="1">
          <mxGeometry x="560" y="942.5" width="74.5" height="87.5" as="geometry" />
        </mxCell>
        <mxCell id="tscdqK9duFFLks6r7VG2-8" style="edgeStyle=orthogonalEdgeStyle;rounded=0;orthogonalLoop=1;jettySize=auto;html=1;" edge="1" parent="1" source="tscdqK9duFFLks6r7VG2-7" target="tscdqK9duFFLks6r7VG2-5">
          <mxGeometry relative="1" as="geometry" />
        </mxCell>
        <mxCell id="tscdqK9duFFLks6r7VG2-14" value="Event triggers API gateway" style="edgeLabel;html=1;align=center;verticalAlign=middle;resizable=0;points=[];" vertex="1" connectable="0" parent="tscdqK9duFFLks6r7VG2-8">
          <mxGeometry x="-0.17" y="-2" relative="1" as="geometry">
            <mxPoint y="1" as="offset" />
          </mxGeometry>
        </mxCell>
        <mxCell id="tscdqK9duFFLks6r7VG2-7" value="Amazon&lt;br&gt;CloudWatch&lt;br&gt;" style="outlineConnect=0;fontColor=#232F3E;gradientColor=#F34482;gradientDirection=north;fillColor=#BC1356;strokeColor=#ffffff;dashed=0;verticalLabelPosition=bottom;verticalAlign=top;align=center;html=1;fontSize=12;fontStyle=0;aspect=fixed;shape=mxgraph.aws4.resourceIcon;resIcon=mxgraph.aws4.cloudwatch;labelBackgroundColor=#ffffff;" vertex="1" parent="1">
          <mxGeometry x="270" y="950" width="78" height="78" as="geometry" />
        </mxCell>
      </root>
    </mxGraphModel>
  </diagram>
</mxfile>
